<svg xmlns="http://www.w3.org/2000/svg" width="260" height="260" viewbox="0 0 260 260" preserveAspectRatio="none"><rect x="0" y="0" width="100%" height="100%" fill="rgb(111, 147, 60)" /><polyline points="14.3,0,29.033333333333,0,43.333333333333,14.3,43.333333333333,29.033333333333,29.033333333333,43.333333333333,14.3,43.333333333333,0,29.033333333333,0,14.3,14.3,0" fill="#ddd" fill-opacity="0.10666666666667" stroke="#000" stroke-opacity="0.02" transform="translate(0, 0)" /><polyline points="14.3,0,29.033333333333,0,43.333333333333,14.3,43.333333333333,29.033333333333,29.033333333333,43.333333333333,14.3,43.333333333333,0,29.033333333333,0,14.3,14.3,0" fill="#222" fill-opacity="0.046" stroke="#000" stroke-opacity="0.02" transform="translate(43.333333333333, 0)" /><polyline points="14.3,0,29.033333333333,0,43.333333333333,14.3,43.333333333333,29.033333333333,29.033333333333,43.333333333333,14.3,43.333333333333,0,29.033333333333,0,14.3,14.3,0" fill="#222" fill-opacity="0.063333333333333" stroke="#000" stroke-opacity="0.02" transform="translate(86.666666666667, 0)" /><polyline points="14.3,0,29.033333333333,0,43.333333333333,14.3,43.333333333333,29.033333333333,29.033333333333,43.333333333333,14.3,43.333333333333,0,29.033333333333,0,14.3,14.3,0" fill="#222" fill-opacity="0.15" stroke="#000" stroke-opacity="0.02" transform="translate(130, 0)" /><polyline points="14.3,0,29.033333333333,0,43.333333333333,14.3,43.333333333333,29.033333333333,29.033333333333,43.333333333333,14.3,43.333333333333,0,29.033333333333,0,14.3,14.3,0" fill="#222" fill-opacity="0.063333333333333" stroke="#000" stroke-opacity="0.02" transform="translate(173.33333333333, 0)" /><polyline points="14.3,0,29.033333333333,0,43.333333333333,14.3,43.333333333333,29.033333333333,29.033333333333,43.333333333333,14.3,43.333333333333,0,29.033333333333,0,14.3,14.3,0" fill="#222" fill-opacity="0.028666666666667" stroke="#000" stroke-opacity="0.02" transform="translate(216.66666666667, 0)" /><polyline points="14.3,0,29.033333333333,0,43.333333333333,14.3,43.333333333333,29.033333333333,29.033333333333,43.333333333333,14.3,43.333333333333,0,29.033333333333,0,14.3,14.3,0" fill="#ddd" fill-opacity="0.10666666666667" stroke="#000" stroke-opacity="0.02" transform="translate(0, 43.333333333333)" /><polyline points="14.3,0,29.033333333333,0,43.333333333333,14.3,43.333333333333,29.033333333333,29.033333333333,43.333333333333,14.3,43.333333333333,0,29.033333333333,0,14.3,14.3,0" fill="#ddd" fill-opacity="0.14133333333333" stroke="#000" stroke-opacity="0.02" transform="translate(43.333333333333, 43.333333333333)" /><polyline points="14.3,0,29.033333333333,0,43.333333333333,14.3,43.333333333333,29.033333333333,29.033333333333,43.333333333333,14.3,43.333333333333,0,29.033333333333,0,14.3,14.3,0" fill="#222" fill-opacity="0.13266666666667" stroke="#000" stroke-opacity="0.02" transform="translate(86.666666666667, 43.333333333333)" /><polyline points="14.3,0,29.033333333333,0,43.333333333333,14.3,43.333333333333,29.033333333333,29.033333333333,43.333333333333,14.3,43.333333333333,0,29.033333333333,0,14.3,14.3,0" fill="#222" fill-opacity="0.11533333333333" stroke="#000" stroke-opacity="0.02" transform="translate(130, 43.333333333333)" /><polyline points="14.3,0,29.033333333333,0,43.333333333333,14.3,43.333333333333,29.033333333333,29.033333333333,43.333333333333,14.3,43.333333333333,0,29.033333333333,0,14.3,14.3,0" fill="#222" fill-opacity="0.046" stroke="#000" stroke-opacity="0.02" transform="translate(173.33333333333, 43.333333333333)" /><polyline points="14.3,0,29.033333333333,0,43.333333333333,14.3,43.333333333333,29.033333333333,29.033333333333,43.333333333333,14.3,43.333333333333,0,29.033333333333,0,14.3,14.3,0" fill="#222" fill-opacity="0.098" stroke="#000" stroke-opacity="0.02" transform="translate(216.66666666667, 43.333333333333)" /><polyline points="14.3,0,29.033333333333,0,43.333333333333,14.3,43.333333333333,29.033333333333,29.033333333333,43.333333333333,14.3,43.333333333333,0,29.033333333333,0,14.3,14.3,0" fill="#222" fill-opacity="0.098" stroke="#000" stroke-opacity="0.02" transform="translate(0, 86.666666666667)" /><polyline points="14.3,0,29.033333333333,0,43.333333333333,14.3,43.333333333333,29.033333333333,29.033333333333,43.333333333333,14.3,43.333333333333,0,29.033333333333,0,14.3,14.3,0" fill="#ddd" fill-opacity="0.10666666666667" stroke="#000" stroke-opacity="0.02" transform="translate(43.333333333333, 86.666666666667)" /><polyline points="14.3,0,29.033333333333,0,43.333333333333,14.3,43.333333333333,29.033333333333,29.033333333333,43.333333333333,14.3,43.333333333333,0,29.033333333333,0,14.3,14.3,0" fill="#ddd" fill-opacity="0.124" stroke="#000" stroke-opacity="0.02" transform="translate(86.666666666667, 86.666666666667)" /><polyline points="14.3,0,29.033333333333,0,43.333333333333,14.3,43.333333333333,29.033333333333,29.033333333333,43.333333333333,14.3,43.333333333333,0,29.033333333333,0,14.3,14.3,0" fill="#ddd" fill-opacity="0.054666666666667" stroke="#000" stroke-opacity="0.02" transform="translate(130, 86.666666666667)" /><polyline points="14.3,0,29.033333333333,0,43.333333333333,14.3,43.333333333333,29.033333333333,29.033333333333,43.333333333333,14.3,43.333333333333,0,29.033333333333,0,14.3,14.3,0" fill="#ddd" fill-opacity="0.072" stroke="#000" stroke-opacity="0.02" transform="translate(173.33333333333, 86.666666666667)" /><polyline points="14.3,0,29.033333333333,0,43.333333333333,14.3,43.333333333333,29.033333333333,29.033333333333,43.333333333333,14.3,43.333333333333,0,29.033333333333,0,14.3,14.3,0" fill="#ddd" fill-opacity="0.02" stroke="#000" stroke-opacity="0.02" transform="translate(216.66666666667, 86.666666666667)" /><polyline points="14.3,0,29.033333333333,0,43.333333333333,14.3,43.333333333333,29.033333333333,29.033333333333,43.333333333333,14.3,43.333333333333,0,29.033333333333,0,14.3,14.3,0" fill="#222" fill-opacity="0.11533333333333" stroke="#000" stroke-opacity="0.02" transform="translate(0, 130)" /><polyline points="14.3,0,29.033333333333,0,43.333333333333,14.3,43.333333333333,29.033333333333,29.033333333333,43.333333333333,14.3,43.333333333333,0,29.033333333333,0,14.3,14.3,0" fill="#ddd" fill-opacity="0.054666666666667" stroke="#000" stroke-opacity="0.02" transform="translate(43.333333333333, 130)" /><polyline points="14.3,0,29.033333333333,0,43.333333333333,14.3,43.333333333333,29.033333333333,29.033333333333,43.333333333333,14.3,43.333333333333,0,29.033333333333,0,14.3,14.3,0" fill="#ddd" fill-opacity="0.02" stroke="#000" stroke-opacity="0.02" transform="translate(86.666666666667, 130)" /><polyline points="14.3,0,29.033333333333,0,43.333333333333,14.3,43.333333333333,29.033333333333,29.033333333333,43.333333333333,14.3,43.333333333333,0,29.033333333333,0,14.3,14.3,0" fill="#222" fill-opacity="0.046" stroke="#000" stroke-opacity="0.02" transform="translate(130, 130)" /><polyline points="14.3,0,29.033333333333,0,43.333333333333,14.3,43.333333333333,29.033333333333,29.033333333333,43.333333333333,14.3,43.333333333333,0,29.033333333333,0,14.3,14.3,0" fill="#ddd" fill-opacity="0.054666666666667" stroke="#000" stroke-opacity="0.02" transform="translate(173.33333333333, 130)" /><polyline points="14.3,0,29.033333333333,0,43.333333333333,14.3,43.333333333333,29.033333333333,29.033333333333,43.333333333333,14.3,43.333333333333,0,29.033333333333,0,14.3,14.3,0" fill="#222" fill-opacity="0.15" stroke="#000" stroke-opacity="0.02" transform="translate(216.66666666667, 130)" /><polyline points="14.3,0,29.033333333333,0,43.333333333333,14.3,43.333333333333,29.033333333333,29.033333333333,43.333333333333,14.3,43.333333333333,0,29.033333333333,0,14.3,14.3,0" fill="#222" fill-opacity="0.046" stroke="#000" stroke-opacity="0.02" transform="translate(0, 173.33333333333)" /><polyline points="14.3,0,29.033333333333,0,43.333333333333,14.3,43.333333333333,29.033333333333,29.033333333333,43.333333333333,14.3,43.333333333333,0,29.033333333333,0,14.3,14.3,0" fill="#ddd" fill-opacity="0.072" stroke="#000" stroke-opacity="0.02" transform="translate(43.333333333333, 173.33333333333)" /><polyline points="14.3,0,29.033333333333,0,43.333333333333,14.3,43.333333333333,29.033333333333,29.033333333333,43.333333333333,14.3,43.333333333333,0,29.033333333333,0,14.3,14.3,0" fill="#222" fill-opacity="0.028666666666667" stroke="#000" stroke-opacity="0.02" transform="translate(86.666666666667, 173.33333333333)" /><polyline points="14.3,0,29.033333333333,0,43.333333333333,14.3,43.333333333333,29.033333333333,29.033333333333,43.333333333333,14.3,43.333333333333,0,29.033333333333,0,14.3,14.3,0" fill="#222" fill-opacity="0.13266666666667" stroke="#000" stroke-opacity="0.02" transform="translate(130, 173.33333333333)" /><polyline points="14.3,0,29.033333333333,0,43.333333333333,14.3,43.333333333333,29.033333333333,29.033333333333,43.333333333333,14.3,43.333333333333,0,29.033333333333,0,14.3,14.3,0" fill="#222" fill-opacity="0.046" stroke="#000" stroke-opacity="0.02" transform="translate(173.33333333333, 173.33333333333)" /><polyline points="14.3,0,29.033333333333,0,43.333333333333,14.3,43.333333333333,29.033333333333,29.033333333333,43.333333333333,14.3,43.333333333333,0,29.033333333333,0,14.3,14.3,0" fill="#222" fill-opacity="0.13266666666667" stroke="#000" stroke-opacity="0.02" transform="translate(216.66666666667, 173.33333333333)" /><polyline points="14.3,0,29.033333333333,0,43.333333333333,14.3,43.333333333333,29.033333333333,29.033333333333,43.333333333333,14.3,43.333333333333,0,29.033333333333,0,14.3,14.3,0" fill="#222" fill-opacity="0.028666666666667" stroke="#000" stroke-opacity="0.02" transform="translate(0, 216.66666666667)" /><polyline points="14.3,0,29.033333333333,0,43.333333333333,14.3,43.333333333333,29.033333333333,29.033333333333,43.333333333333,14.3,43.333333333333,0,29.033333333333,0,14.3,14.3,0" fill="#222" fill-opacity="0.080666666666667" stroke="#000" stroke-opacity="0.02" transform="translate(43.333333333333, 216.66666666667)" /><polyline points="14.3,0,29.033333333333,0,43.333333333333,14.3,43.333333333333,29.033333333333,29.033333333333,43.333333333333,14.3,43.333333333333,0,29.033333333333,0,14.3,14.3,0" fill="#222" fill-opacity="0.063333333333333" stroke="#000" stroke-opacity="0.02" transform="translate(86.666666666667, 216.66666666667)" /><polyline points="14.3,0,29.033333333333,0,43.333333333333,14.3,43.333333333333,29.033333333333,29.033333333333,43.333333333333,14.3,43.333333333333,0,29.033333333333,0,14.3,14.3,0" fill="#ddd" fill-opacity="0.02" stroke="#000" stroke-opacity="0.02" transform="translate(130, 216.66666666667)" /><polyline points="14.3,0,29.033333333333,0,43.333333333333,14.3,43.333333333333,29.033333333333,29.033333333333,43.333333333333,14.3,43.333333333333,0,29.033333333333,0,14.3,14.3,0" fill="#ddd" fill-opacity="0.02" stroke="#000" stroke-opacity="0.02" transform="translate(173.33333333333, 216.66666666667)" /><polyline points="14.3,0,29.033333333333,0,43.333333333333,14.3,43.333333333333,29.033333333333,29.033333333333,43.333333333333,14.3,43.333333333333,0,29.033333333333,0,14.3,14.3,0" fill="#ddd" fill-opacity="0.072" stroke="#000" stroke-opacity="0.02" transform="translate(216.66666666667, 216.66666666667)" /></svg>